<?xml version="1.0" encoding="UTF-8" standalone="no"?>
<!-- Created with Inkscape (http://www.inkscape.org/) -->

<svg
   width="297mm"
   height="210mm"
   viewBox="0 0 297 210"
   version="1.1"
   id="svg5"
   inkscape:version="1.2.2 (b0a8486541, 2022-12-01)"
   sodipodi:docname="desenho.svg"
   xmlns:inkscape="http://www.inkscape.org/namespaces/inkscape"
   xmlns:sodipodi="http://sodipodi.sourceforge.net/DTD/sodipodi-0.dtd"
   xmlns="http://www.w3.org/2000/svg"
   xmlns:svg="http://www.w3.org/2000/svg">
  <sodipodi:namedview
     id="namedview7"
     pagecolor="#ffffff"
     bordercolor="#000000"
     borderopacity="0.25"
     inkscape:showpageshadow="2"
     inkscape:pageopacity="0.0"
     inkscape:pagecheckerboard="0"
     inkscape:deskcolor="#d1d1d1"
     inkscape:document-units="mm"
     showgrid="false"
     inkscape:zoom="0.43110934"
     inkscape:cx="575.26009"
     inkscape:cy="454.64104"
     inkscape:window-width="1366"
     inkscape:window-height="713"
     inkscape:window-x="0"
     inkscape:window-y="0"
     inkscape:window-maximized="1"
     inkscape:current-layer="layer1" />
  <defs
     id="defs2" />
  <g
     inkscape:label="Camada 1"
     inkscape:groupmode="layer"
     id="layer1">
    <rect
       style="fill:#00ff00;stroke:#000000;stroke-width:1"
       id="quadrado"
       width="33.84523"
       height="35.023563"
       x="131.57739"
       y="87.48822"
       class="icone" />
    <circle
       style="fill:#00ff00;stroke:#000000;stroke-width:1"
       id="path350"
       cx="255.62054"
       cy="41.041904"
       r="18.822739"
       class="icone" />
    <path
       id="path601"
       style="fill:#00ff00;stroke:#000000;stroke-width:1"
       d="M 61.981746 142.91014 C 54.231211 142.78992 49.815011 144.6479 43.527576 149.11286 C 42.838525 149.60218 40.057691 152.34911 39.062732 152.01346 C 37.117681 151.35729 24.136804 146.11774 22.940202 147.19412 C 22.647505 147.45741 23.322202 149.62061 23.386686 149.96036 C 24.026039 153.32884 25.01402 156.27016 23.287467 159.37632 C 22.393482 160.98465 20.837044 162.26732 19.963639 163.83858 C 19.539648 164.60135 19.46744 165.50239 19.070671 166.29269 C 17.709087 169.00473 15.468577 171.5894 15.15153 174.7268 C 14.998754 176.23863 16.388344 175.12241 16.639811 175.57481 C 17.257775 176.68655 16.811311 179.60584 16.73903 180.88457 C 16.70698 181.45151 16.557809 186.41869 16.689421 186.50748 C 18.210676 187.53375 20.346577 188.31626 22.096842 189.05099 C 23.786202 189.76015 25.262236 190.90462 27.008171 191.50511 C 32.438111 193.37268 42.440377 193.52251 47.992419 192.17483 C 50.061493 191.67259 51.9919 190.55007 53.994637 189.85404 C 57.487904 188.64001 61.311307 187.77726 64.9087 186.86456 C 67.296628 186.25872 82.983295 183.11446 83.710136 181.15277 C 83.918985 180.58911 82.182183 175.62689 81.874589 174.59296 C 81.624304 173.75165 81.389025 173.19634 81.279277 172.40653 C 81.264777 172.30211 81.280887 172.00175 81.229667 172.09389 C 80.867771 172.74494 78.920438 178.46913 77.955448 178.25217 C 77.280122 178.10034 76.651424 173.57064 76.417558 172.80806 C 76.399888 172.75046 75.84352 171.35007 75.723027 171.60296 C 75.624987 171.80872 72.623872 175.87436 72.151152 175.61925 C 71.27749 175.14778 71.319625 170.1307 70.365731 170.1307 C 69.931524 170.1307 70.311151 171.00083 70.216903 171.42468 C 70.111493 171.89877 68.353727 179.95174 67.686825 179.5017 C 66.62182 178.78303 64.945693 172.03783 64.462215 171.60296 C 63.73971 170.95308 61.918598 178.2925 60.592684 173.52171 C 60.501124 173.19225 60.355091 172.877 60.295028 172.54037 C 60.139545 171.66892 60.06352 170.78507 59.947762 169.90746 C 60.476918 168.4795 61.03297 167.06111 61.535262 165.62348 C 62.209837 163.69276 62.171182 162.23129 63.866903 164.99871 C 63.896573 165.04711 67.559466 173.18523 68.182918 173.52171 C 68.314625 173.59281 68.138509 173.22532 68.133309 173.07574 C 68.093039 171.91632 68.177079 171.70007 68.282137 170.35343 C 68.392931 168.93325 68.161625 162.60176 68.927059 161.33951 C 69.355431 160.63308 69.941511 162.65574 70.316121 163.39209 C 70.894254 164.52849 72.548422 170.33935 73.689042 171.02315 C 74.461981 171.48653 74.396773 163.08921 74.433183 162.49964 C 74.465163 161.98182 74.492557 160.55081 74.780448 160.98242 C 76.386838 163.39073 76.633742 166.73449 77.80662 169.37209 C 78.108975 170.05204 78.441912 171.83672 78.947636 171.29084 C 79.718808 170.45844 79.476305 165.33384 79.642167 163.97242 C 79.752165 163.06954 80.031223 161.76655 80.138261 161.87487 C 80.765732 162.50985 82.816933 171.57838 83.908573 170.48727 C 84.618643 169.77755 84.990775 163.67395 86.488261 161.42891 C 87.613855 159.74139 88.455476 158.17662 89.266386 156.29692 C 89.403173 155.97985 90.207019 155.44943 89.861698 155.44943 C 89.763399 155.44943 89.688862 154.70505 89.663261 154.60142 C 89.431163 153.6619 89.461148 153.79955 88.91912 152.54883 C 88.144212 150.76073 86.993354 149.42036 85.347245 148.35425 C 78.363707 143.83134 70.09871 143.03603 61.981746 142.91014 z M 49.994881 153.84281 A 2.5480602 7.0745368 0 0 1 52.542529 160.91731 A 2.5480602 7.0745368 0 0 1 49.994881 167.99181 A 2.5480602 7.0745368 0 0 1 47.446716 160.91731 A 2.5480602 7.0745368 0 0 1 49.994881 153.84281 z "
       class="icone" />
    <g
       id="g788"
       transform="translate(9.9956567,-2.6680575)"
       class="icone">
      <path
         id="path764"
         style="fill:#00ff00;stroke:#000000;stroke-width:1"
         d="m 43.888966,39.706838 c -7.747238,-8.7e-5 -14.027649,6.67619 -14.027567,14.911751 0.73242,11.312927 0.373733,21.17741 -3.622518,26.21287 l 17.650085,0.0584 17.650086,-0.0584 c -3.996251,-5.03546 -4.354938,-14.899943 -3.622518,-26.21287 8.2e-5,-8.235561 -6.280329,-14.911838 -14.027568,-14.911751 z" />
      <path
         id="path775"
         style="fill:#00ff00;stroke:#000000;stroke-width:1"
         d="m 42.724437,80.860656 a 5.0320802,5.0320802 0 0 0 -0.03876,0.59583 5.0320802,5.0320802 0 0 0 5.032251,5.031734 5.0320802,5.0320802 0 0 0 5.032251,-5.031734 5.0320802,5.0320802 0 0 0 -0.03617,-0.59583 z" />
      <circle
         style="fill:#00ff00;stroke:#000000;stroke-width:1"
         id="path782"
         cx="43.888966"
         cy="35.160782"
         r="4.5460548" />
    </g>
  </g>
</svg>
